C:\Users\u0150099\Documents\PredSim_dev\Subjects\test_1\MuscleAnalysis\dummy_motion.mot
version=1
nRows=11
nColumns=32
inDegrees=no
endheader
                time	         pelvis_tilt	         pelvis_list	     pelvis_rotation	           pelvis_tx	           pelvis_ty	           pelvis_tz	       hip_flexion_l	     hip_adduction_l	      hip_rotation_l	       hip_flexion_r	     hip_adduction_r	      hip_rotation_r	        knee_angle_l	        knee_angle_r	       ankle_angle_l	       ankle_angle_r	    subtalar_angle_l	    subtalar_angle_r	         mtp_angle_l	         mtp_angle_r	    lumbar_extension	      lumbar_bending	     lumbar_rotation	          arm_flex_l	           arm_add_l	           arm_rot_l	          arm_flex_r	           arm_add_r	           arm_rot_r	        elbow_flex_l	        elbow_flex_r	
          0.01000000	          0.00000000	          0.00000000	          0.00000000	          0.00000000	          0.00000000	          0.00000000	         -0.37712950	         -0.36527892	          0.14476059	          0.48710086	         -0.18425663	         -0.25950110	         -0.92297524	         -0.25379909	         -0.31960863	          0.23231885	         -0.23528987	          0.06629454	          0.39272779	          0.21349381	         -0.23929858	          0.22890328	          0.31004544	         -0.30931804	          0.39071444	         -0.20017309	         -0.12124035	          0.40763502	         -0.11995745	         -0.29546652	         -0.41120399	
          0.02000000	          0.00000000	          0.00000000	          0.00000000	          0.00000000	          0.00000000	          0.00000000	         -0.30433196	          0.06680919	          0.13621447	          0.37112167	         -0.20917022	         -0.12046556	         -0.60053859	         -0.41141926	         -0.00781695	          0.28242314	         -0.05606242	         -0.10330785	         -0.14217129	          0.64955950	         -0.42262180	          0.26455616	          0.23295346	         -0.40321659	         -0.36882471	         -0.39038480	         -0.15766395	          0.46680009	          0.14813047	          0.13501284	          0.37176575	
          0.03000000	          0.00000000	          0.00000000	          0.00000000	          0.00000000	          0.00000000	          0.00000000	          0.11647839	          0.11864127	         -0.44750421	         -0.59582948	          0.38078878	         -0.12139946	         -0.92140710	         -0.05293680	         -0.30405951	          0.12995604	         -0.23381850	         -0.21456642	          0.74637465	          0.20934876	          0.28733754	         -0.41394821	         -0.27589410	         -0.38403098	          0.28812082	          0.15422054	          0.25451335	         -0.07941051	         -0.26995261	          0.02643716	         -0.50590097	
          0.04000000	          0.00000000	          0.00000000	          0.00000000	          0.00000000	          0.00000000	          0.00000000	         -0.12347774	         -0.38042311	         -0.24403160	         -0.06472024	         -0.26535225	         -0.04416272	         -0.67513471	         -0.34680743	         -0.27785991	         -0.44908103	         -0.29942794	         -0.35817116	          0.08787772	          0.25703483	         -0.49564176	         -0.05124940	         -0.46432474	          0.25758407	         -0.35786834	          0.05864533	         -0.00058353	          0.05316062	          0.30055846	         -0.52048005	          0.40459096	
          0.05000000	          0.00000000	          0.00000000	          0.00000000	          0.00000000	          0.00000000	          0.00000000	          0.52651179	          0.48707643	          0.26349170	         -0.33070898	          0.07129637	         -0.18542340	         -1.18146493	         -0.87918894	         -0.32169099	         -0.23319534	         -0.00789501	         -0.01768496	         -0.25741024	          0.52885377	          0.32515803	          0.01264836	          0.14008817	          0.17022757	          0.05668342	         -0.37273623	          0.02868706	          0.04325566	          0.13003581	         -0.48678155	         -0.13103708	
          0.06000000	          0.00000000	          0.00000000	          0.00000000	          0.00000000	          0.00000000	          0.00000000	         -0.23009178	          0.45055391	          0.16258977	          0.17394587	         -0.30785996	          0.50069359	         -0.04996038	         -0.62428648	          0.23650646	          0.06238949	          0.08695147	          0.15658106	          0.59425331	         -0.27422954	          0.16740960	         -0.16030003	         -0.45087518	          0.09987488	         -0.17727788	          0.44956842	          0.28951564	          0.35351530	         -0.16906657	          0.32611216	          0.38646257	
          0.07000000	          0.00000000	          0.00000000	          0.00000000	          0.00000000	          0.00000000	          0.00000000	          0.26217679	          0.22607946	          0.16801446	         -0.01464931	          0.05266732	          0.16795354	         -1.34698825	         -1.14388854	         -0.22262527	         -0.23470338	          0.12772302	         -0.02407474	          0.76106317	          0.74176851	         -0.40112622	         -0.44888031	         -0.37632263	          0.36728495	         -0.48234742	          0.16694905	          0.02756894	          0.48538250	          0.48729496	         -0.11251804	         -0.40497742	
          0.08000000	          0.00000000	          0.00000000	          0.00000000	          0.00000000	          0.00000000	          0.00000000	         -0.76998829	          0.12659585	          0.17736788	          0.75819518	          0.03294877	          0.37911185	         -0.98018991	         -1.24655492	          0.34689914	         -0.21315193	         -0.13924906	          0.12526040	          0.66838573	          0.81815625	         -0.06984836	         -0.00065407	          0.30941454	          0.37126597	         -0.12166539	         -0.22732119	          0.22042381	         -0.15457750	          0.32777334	          0.16790484	          0.15154587	
          0.09000000	          0.00000000	          0.00000000	          0.00000000	          0.00000000	          0.00000000	          0.00000000	          0.09171383	          0.39806324	          0.51253090	          0.59436476	          0.11448667	          0.17067474	         -1.16332354	         -0.89178650	          0.12520302	          0.08045270	         -0.00619059	         -0.18066377	         -0.22793697	          0.64196785	         -0.04890064	          0.40853504	         -0.34335479	         -0.25478012	          0.13727322	          0.04494566	         -0.49553879	         -0.15383519	          0.19265331	          0.12464965	         -0.51184820	
          0.10000000	          0.00000000	          0.00000000	          0.00000000	          0.00000000	          0.00000000	          0.00000000	          0.53450509	          0.03435105	          0.11227124	          0.29401529	          0.17037942	          0.37948635	         -1.10513560	         -1.33001206	          0.40894474	         -0.08050988	          0.50295587	         -0.37888936	         -0.09218572	          0.08987689	          0.07274109	         -0.30256527	         -0.09670093	          0.33921171	         -0.09393676	          0.42434144	          0.20980885	         -0.08984260	          0.13506317	          0.43127893	         -0.17851700	
          0.11000000	          0.00000000	          0.00000000	          0.00000000	          0.00000000	          0.00000000	          0.00000000	          0.46225597	          0.44347071	         -0.42957562	          0.29155284	         -0.22565413	          0.47738672	         -0.46356108	         -0.43869423	          0.40939862	         -0.02728659	          0.21948803	          0.02049330	          0.14043554	         -0.21911208	         -0.35137022	          0.05898531	         -0.16521270	          0.24305706	          0.02916131	          0.40443535	         -0.48236266	          0.05074285	         -0.48975356	          0.36761015	          0.48215647	
